<svg xmlns="http://www.w3.org/2000/svg" viewBox="0 0 256 256">
  <defs>
    <mask id="m">
      <circle cx="128" cy="128" r="128" fill="white"/>
      <g transform="translate(128,128) scale(1.15) translate(-128,-128)">
        <path d="M186.8 113.2c-29.6-17.6-78.4-19.2-106.8-10.6-4.6 1.4-9.4-1.2-10.8-5.8-1.4-4.6 1.2-9.4 5.8-10.8 32.6-9.8 86.8-7.8 121 12.2 4 2.4 5.4 7.6 3 11.6-2.4 4-7.6 5.4-11.2 3.4zm-1.8 30.4c-2 3.2-6.2 4.2-9.4 2.2-24.8-15.2-62.4-19.6-91.6-10.8-3.6 1.2-7.4-.8-8.6-4.4-1.2-3.6.8-7.4 4.4-8.6 33.4-10.2 74.8-5.2 103.2 12.2 3.2 2 4.2 6.2 2 9.4zm-10.8 29.2c-1.6 2.6-5 3.4-7.6 1.8-21.6-13.2-48.8-16.2-80.8-8.8-3 .6-6-1.2-6.6-4.2-.6-3 1.2-6 4.2-6.6 35-7.8 65-4.4 89.2 10.2 2.6 1.6 3.4 5 1.6 7.6z" fill="black"/>
      </g>
    </mask>
  </defs>
  <circle cx="128" cy="128" r="128" fill="#1DB954" mask="url(#m)"/>
</svg>
